<mxfile host="app.diagrams.net" agent="Mozilla/5.0 (Windows NT 10.0; Win64; x64) AppleWebKit/537.36 (KHTML, like Gecko) Chrome/132.0.0.0 Safari/537.36 Edg/132.0.0.0" version="26.0.16">
  <diagram name="Page-1" id="UM4WadPqU_O_7prTtq_3">
    <mxGraphModel dx="1012" dy="539" grid="1" gridSize="10" guides="1" tooltips="1" connect="1" arrows="1" fold="1" page="1" pageScale="1" pageWidth="827" pageHeight="1169" background="none" math="0" shadow="0">
      <root>
        <mxCell id="0" />
        <mxCell id="1" parent="0" />
        <mxCell id="5TFMux1RP8ild-dQgcf5-1" value="Exchange de service" style="rounded=0;whiteSpace=wrap;html=1;" parent="1" vertex="1">
          <mxGeometry x="590" y="260" width="90" height="90" as="geometry" />
        </mxCell>
        <mxCell id="eWDsEHiJVU1BKkFps5_M-1" value="Exchange de domaine" style="rounded=0;whiteSpace=wrap;html=1;" vertex="1" parent="1">
          <mxGeometry x="440" y="260" width="100" height="90" as="geometry" />
        </mxCell>
        <mxCell id="eWDsEHiJVU1BKkFps5_M-3" value="Exchange de l&#39;&lt;div&gt;api-message&lt;/div&gt;" style="rounded=0;whiteSpace=wrap;html=1;" vertex="1" parent="1">
          <mxGeometry x="300" y="260" width="100" height="90" as="geometry" />
        </mxCell>
        <mxCell id="eWDsEHiJVU1BKkFps5_M-6" value="" style="endArrow=none;html=1;rounded=0;entryX=0;entryY=0.5;entryDx=0;entryDy=0;exitX=1;exitY=0.5;exitDx=0;exitDy=0;" edge="1" parent="1" source="eWDsEHiJVU1BKkFps5_M-1" target="5TFMux1RP8ild-dQgcf5-1">
          <mxGeometry width="50" height="50" relative="1" as="geometry">
            <mxPoint x="470" y="430" as="sourcePoint" />
            <mxPoint x="520" y="380" as="targetPoint" />
          </mxGeometry>
        </mxCell>
        <mxCell id="eWDsEHiJVU1BKkFps5_M-8" value="0..n" style="text;html=1;align=center;verticalAlign=middle;whiteSpace=wrap;rounded=0;" vertex="1" parent="1">
          <mxGeometry x="534" y="305" width="60" height="30" as="geometry" />
        </mxCell>
        <mxCell id="eWDsEHiJVU1BKkFps5_M-10" value="queue" style="strokeWidth=2;html=1;shape=mxgraph.flowchart.direct_data;whiteSpace=wrap;" vertex="1" parent="1">
          <mxGeometry x="720" y="290" width="70" height="30" as="geometry" />
        </mxCell>
        <mxCell id="eWDsEHiJVU1BKkFps5_M-11" value="1..n" style="text;html=1;align=center;verticalAlign=middle;whiteSpace=wrap;rounded=0;" vertex="1" parent="1">
          <mxGeometry x="670" y="310" width="60" height="30" as="geometry" />
        </mxCell>
        <mxCell id="eWDsEHiJVU1BKkFps5_M-12" value="" style="endArrow=none;html=1;rounded=0;entryX=0;entryY=0.5;entryDx=0;entryDy=0;entryPerimeter=0;exitX=1;exitY=0.5;exitDx=0;exitDy=0;" edge="1" parent="1" source="5TFMux1RP8ild-dQgcf5-1" target="eWDsEHiJVU1BKkFps5_M-10">
          <mxGeometry width="50" height="50" relative="1" as="geometry">
            <mxPoint x="670" y="305" as="sourcePoint" />
            <mxPoint x="870" y="288.42105263157896" as="targetPoint" />
          </mxGeometry>
        </mxCell>
        <mxCell id="eWDsEHiJVU1BKkFps5_M-14" value="" style="rounded=1;whiteSpace=wrap;html=1;fillColor=#ffe6cc;strokeColor=#d79b00;strokeOpacity=100;fillOpacity=20;" vertex="1" parent="1">
          <mxGeometry x="260" y="190" width="550" height="310" as="geometry" />
        </mxCell>
        <mxCell id="eWDsEHiJVU1BKkFps5_M-21" value="" style="endArrow=none;html=1;rounded=0;exitX=1;exitY=0.5;exitDx=0;exitDy=0;entryX=0;entryY=0.5;entryDx=0;entryDy=0;" edge="1" parent="1" source="eWDsEHiJVU1BKkFps5_M-3" target="eWDsEHiJVU1BKkFps5_M-1">
          <mxGeometry width="50" height="50" relative="1" as="geometry">
            <mxPoint x="390" y="360" as="sourcePoint" />
            <mxPoint x="410" y="310" as="targetPoint" />
          </mxGeometry>
        </mxCell>
        <mxCell id="eWDsEHiJVU1BKkFps5_M-22" value="1..n" style="text;html=1;align=center;verticalAlign=middle;whiteSpace=wrap;rounded=0;" vertex="1" parent="1">
          <mxGeometry x="390" y="310" width="60" height="30" as="geometry" />
        </mxCell>
        <mxCell id="eWDsEHiJVU1BKkFps5_M-35" style="edgeStyle=orthogonalEdgeStyle;rounded=0;orthogonalLoop=1;jettySize=auto;html=1;" edge="1" parent="1" source="eWDsEHiJVU1BKkFps5_M-23" target="eWDsEHiJVU1BKkFps5_M-1">
          <mxGeometry relative="1" as="geometry" />
        </mxCell>
        <mxCell id="eWDsEHiJVU1BKkFps5_M-23" value="Exchange spÃ©cifique" style="rounded=0;whiteSpace=wrap;html=1;fillColor=none;" vertex="1" parent="1">
          <mxGeometry x="300" y="380" width="100" height="70" as="geometry" />
        </mxCell>
        <mxCell id="eWDsEHiJVU1BKkFps5_M-24" style="edgeStyle=orthogonalEdgeStyle;rounded=0;orthogonalLoop=1;jettySize=auto;html=1;exitX=0.5;exitY=1;exitDx=0;exitDy=0;" edge="1" parent="1" source="eWDsEHiJVU1BKkFps5_M-23" target="eWDsEHiJVU1BKkFps5_M-23">
          <mxGeometry relative="1" as="geometry" />
        </mxCell>
        <mxCell id="eWDsEHiJVU1BKkFps5_M-33" style="edgeStyle=orthogonalEdgeStyle;rounded=0;orthogonalLoop=1;jettySize=auto;html=1;" edge="1" parent="1" source="eWDsEHiJVU1BKkFps5_M-25" target="eWDsEHiJVU1BKkFps5_M-3">
          <mxGeometry relative="1" as="geometry">
            <mxPoint x="250" y="300" as="targetPoint" />
          </mxGeometry>
        </mxCell>
        <mxCell id="eWDsEHiJVU1BKkFps5_M-25" value="api-message" style="rounded=0;whiteSpace=wrap;html=1;" vertex="1" parent="1">
          <mxGeometry x="120" y="275" width="100" height="60" as="geometry" />
        </mxCell>
        <mxCell id="eWDsEHiJVU1BKkFps5_M-28" style="edgeStyle=orthogonalEdgeStyle;rounded=0;orthogonalLoop=1;jettySize=auto;html=1;exitX=1;exitY=0.5;exitDx=0;exitDy=0;" edge="1" parent="1" source="eWDsEHiJVU1BKkFps5_M-26" target="eWDsEHiJVU1BKkFps5_M-25">
          <mxGeometry relative="1" as="geometry" />
        </mxCell>
        <mxCell id="eWDsEHiJVU1BKkFps5_M-26" value="Client" style="rounded=1;whiteSpace=wrap;html=1;" vertex="1" parent="1">
          <mxGeometry x="20" y="100" width="120" height="60" as="geometry" />
        </mxCell>
        <mxCell id="eWDsEHiJVU1BKkFps5_M-31" style="edgeStyle=orthogonalEdgeStyle;rounded=0;orthogonalLoop=1;jettySize=auto;html=1;exitX=1;exitY=0.5;exitDx=0;exitDy=0;" edge="1" parent="1" source="eWDsEHiJVU1BKkFps5_M-29" target="eWDsEHiJVU1BKkFps5_M-23">
          <mxGeometry relative="1" as="geometry">
            <mxPoint x="270" y="415" as="targetPoint" />
          </mxGeometry>
        </mxCell>
        <mxCell id="eWDsEHiJVU1BKkFps5_M-29" value="Client" style="rounded=1;whiteSpace=wrap;html=1;" vertex="1" parent="1">
          <mxGeometry x="20" y="385" width="120" height="60" as="geometry" />
        </mxCell>
        <mxCell id="eWDsEHiJVU1BKkFps5_M-36" value="1..1" style="text;html=1;align=center;verticalAlign=middle;whiteSpace=wrap;rounded=0;" vertex="1" parent="1">
          <mxGeometry x="400" y="385" width="60" height="30" as="geometry" />
        </mxCell>
        <mxCell id="eWDsEHiJVU1BKkFps5_M-37" value="Client" style="rounded=1;whiteSpace=wrap;html=1;" vertex="1" parent="1">
          <mxGeometry x="827" y="275" width="120" height="60" as="geometry" />
        </mxCell>
        <mxCell id="eWDsEHiJVU1BKkFps5_M-39" style="edgeStyle=orthogonalEdgeStyle;rounded=0;orthogonalLoop=1;jettySize=auto;html=1;entryX=1;entryY=0.5;entryDx=0;entryDy=0;entryPerimeter=0;" edge="1" parent="1" source="eWDsEHiJVU1BKkFps5_M-37" target="eWDsEHiJVU1BKkFps5_M-10">
          <mxGeometry relative="1" as="geometry" />
        </mxCell>
      </root>
    </mxGraphModel>
  </diagram>
</mxfile>
